<?xml version="1.0" encoding="UTF-8" standalone="no"?>
<svg
   width="64"
   height="64"
   version="1"
   id="svg6"
   sodipodi:docname="tor-router.svg"
   inkscape:version="1.3 (0e150ed6c4, 2023-07-21)"
   xmlns:inkscape="http://www.inkscape.org/namespaces/inkscape"
   xmlns:sodipodi="http://sodipodi.sourceforge.net/DTD/sodipodi-0.dtd"
   xmlns="http://www.w3.org/2000/svg"
   xmlns:svg="http://www.w3.org/2000/svg">
  <defs
     id="defs6" />
  <sodipodi:namedview
     id="namedview6"
     pagecolor="#ffffff"
     bordercolor="#000000"
     borderopacity="0.25"
     inkscape:showpageshadow="2"
     inkscape:pageopacity="0.0"
     inkscape:pagecheckerboard="0"
     inkscape:deskcolor="#d1d1d1"
     inkscape:zoom="7.875"
     inkscape:cx="34.222222"
     inkscape:cy="35.428571"
     inkscape:window-width="1366"
     inkscape:window-height="719"
     inkscape:window-x="0"
     inkscape:window-y="0"
     inkscape:window-maximized="1"
     inkscape:current-layer="svg6" />
  <g
     style="opacity:1;fill:#7a1ea9;fill-opacity:1"
     transform="matrix(0.16155185,0,0,0.15880199,7.2824811,0.77812796)"
     id="g1">
    <path
       d="m 153.00034,26.585781 c -3.08843,0 -6.18237,0.51471 -9.1349,1.556119 L 16.566632,73.029934 c -10.9028258,3.845169 -18.3151784,14.32115 -18.3151784,25.885431 0,49.504535 12.7255444,104.519855 35.0423344,153.636785 18.116448,39.87821 50.50828,94.45406 107.138492,123.62164 3.92272,2.01865 8.25938,3.05239 12.56806,3.05239 4.30867,0 8.64534,-1.03374 12.56805,-3.05239 56.62579,-29.17286 89.00424,-83.7503 107.12337,-123.62164 a 23.108569,23.10857 0 0 0 0.0155,0 c 22.3156,-49.12005 35.04233,-104.13858 35.04233,-153.636785 0,-11.564281 -7.41235,-22.040262 -18.31518,-25.885431 a 23.108569,23.10857 0 0 0 -0.0302,0 L 162.13524,28.1419 c -2.95561,-1.043801 -6.04293,-1.556119 -9.1349,-1.556119 z"
       id="path1"
       style="opacity:1;fill:#7a1ea9;fill-opacity:1" />
  </g>
  <g
     style="opacity:0.2;fill:#ffffff"
     transform="matrix(0.16155185,0,0,0.15880199,7.2824811,-0.22187195)"
     id="g4" />
  <g
     id="g2"
     transform="matrix(1.1849168,0,0,1.1849168,-6.743264,-5.6161458)">
    <path
       style="opacity:0.2;stroke-width:0.630346"
       d="m 32.210581,14.930439 c -8.339324,0 -15.128311,6.788986 -15.128311,15.12831 0,8.339324 6.788987,15.128309 15.128311,15.128309 8.339324,0 15.128309,-6.788985 15.128309,-15.128309 0,-8.339324 -6.788985,-15.12831 -15.128309,-15.12831 z m 0,2.669122 c 6.89651,0 12.459187,5.562678 12.459187,12.459188 0,6.89651 -5.562677,12.459187 -12.459187,12.459187 -6.89651,0 -12.459188,-5.562677 -12.459188,-12.459187 0,-6.89651 5.562678,-12.459188 12.459188,-12.459188 z m 0,2.373647 c -5.5538,0 -10.085541,4.531741 -10.085541,10.085541 0,5.5538 4.531741,10.08554 10.085541,10.08554 5.5538,0 10.08554,-4.53174 10.08554,-10.08554 0,-5.5538 -4.53174,-10.085541 -10.08554,-10.085541 z m 0,2.750378 c 4.067264,0 7.335162,3.267898 7.335162,7.335163 0,4.067264 -3.267898,7.335162 -7.335162,7.335162 -4.067265,0 -7.335163,-3.267898 -7.335163,-7.335162 0,-4.067265 3.267898,-7.335163 7.335163,-7.335163 z m 0,2.292393 a 5.0427699,5.0427699 0 0 0 -5.04277,5.04277 5.0427699,5.0427699 0 0 0 5.04277,5.04277 5.0427699,5.0427699 0 0 0 5.04277,-5.04277 5.0427699,5.0427699 0 0 0 -5.04277,-5.04277 z"
       id="path2" />
    <circle
       style="fill:none;stroke:#ffffff;stroke-width:2.6697;stroke-linecap:round;stroke-linejoin:round"
       cx="32.243343"
       cy="30.083616"
       id="circle3"
       r="13.793236" />
    <circle
       style="fill:none;stroke:#ffffff;stroke-width:2.6697;stroke-linecap:round;stroke-linejoin:round"
       cx="32.227829"
       cy="30.048498"
       r="13.793236"
       id="circle3-6" />
    <circle
       style="fill:none;stroke:#ffffff;stroke-width:2.7506;stroke-linecap:round;stroke-linejoin:round"
       cx="32.167645"
       cy="30.12125"
       r="8.710124"
       id="circle4" />
    <circle
       style="fill:#ffffff;stroke-width:0.630346"
       cx="32.257938"
       cy="30.030537"
       r="5.0427699"
       id="circle5" />
    <path
       style="fill:#7a1ea9;stroke-width:0.60928"
       d="m 32.47192,46.578046 c -9.421889,0 -16.206848,-6.784958 -16.206848,-16.206848 0,-9.42189 6.784959,-16.206849 16.206848,-16.206849 z"
       id="path5" />
  </g>
</svg>
